<svg width="24" height="14" viewBox="0 0 24 14" fill="none" xmlns="http://www.w3.org/2000/svg">
<path d="M19.5625 4.53234H18.6119C18.5049 4.53302 18.3989 4.51253 18.3 4.47208C18.2009 4.43162 18.1109 4.37205 18.035 4.29673L15.8737 2.13552C15.3408 1.60252 14.7072 1.1808 14.0097 0.894859C13.3123 0.608912 12.565 0.464452 11.8113 0.469874H4.9375C3.86006 0.469874 2.82674 0.897887 2.06488 1.65972C1.30301 2.42159 0.875 3.45494 0.875 4.53234V8.59484C0.875 9.24132 1.13181 9.86134 1.58893 10.3185C2.04605 10.7755 2.66603 11.0323 3.3125 11.0323C3.3125 11.7866 3.61211 12.5099 4.14542 13.0432C4.67872 13.5765 5.40204 13.8761 6.15625 13.8761C6.91044 13.8761 7.63378 13.5765 8.16708 13.0432C8.70039 12.5099 9 11.7866 9 11.0323H14.7688C14.8586 11.7122 15.1924 12.3362 15.7081 12.7882C16.2238 13.2402 16.8861 13.4894 17.5719 13.4894C18.2576 13.4894 18.92 13.2402 19.4356 12.7882C19.9514 12.3362 20.2851 11.7122 20.375 11.0323H21.1875C21.834 11.0323 22.4539 10.7755 22.9111 10.3185C23.3682 9.86134 23.625 9.24132 23.625 8.59484C23.625 7.51744 23.197 6.48409 22.4351 5.72222C21.6732 4.96042 20.64 4.53234 19.5625 4.53234ZM11.8519 2.09484C12.3857 2.09392 12.9145 2.19822 13.4081 2.40171C13.9016 2.60528 14.3502 2.90412 14.7281 3.28112L15.9794 4.53234H5.945C5.79358 4.53341 5.64488 4.49211 5.51567 4.41319C5.38646 4.3342 5.28189 4.22072 5.21375 4.08552L4.27125 2.20052C4.48674 2.13192 4.71136 2.09629 4.9375 2.09484H11.8519ZM2.5 8.59484V4.53234C2.50044 4.03895 2.6506 3.55734 2.93063 3.15112L3.74313 4.77612C3.94243 5.19067 4.25496 5.54029 4.64459 5.78469C5.03422 6.02917 5.48505 6.15833 5.945 6.15734H10.625V9.40734H8.71561C8.48742 8.92137 8.12548 8.51034 7.67224 8.2225C7.219 7.93459 6.69319 7.78172 6.15625 7.78172C5.61931 7.78172 5.09347 7.93459 4.64023 8.2225C4.18699 8.51034 3.8251 8.92137 3.59687 9.40734H3.3125C3.09701 9.40734 2.89035 9.32177 2.73798 9.16944C2.5856 9.01703 2.5 8.81033 2.5 8.59484ZM6.15625 11.8448C5.91521 11.8448 5.67957 11.7734 5.47915 11.6395C5.27873 11.5055 5.12251 11.3152 5.03027 11.0925C4.93803 10.8698 4.91389 10.6247 4.96092 10.3884C5.00795 10.1519 5.12402 9.93475 5.29447 9.7643C5.46491 9.59392 5.68207 9.47784 5.91848 9.43081C6.1549 9.38378 6.39995 9.40787 6.62264 9.50017C6.84534 9.59239 7.0357 9.74862 7.1696 9.94905C7.3035 10.1494 7.375 10.3851 7.375 10.6261C7.375 10.9494 7.24661 11.2594 7.01804 11.4879C6.78948 11.7164 6.47948 11.8448 6.15625 11.8448ZM17.5312 11.8448C17.2902 11.8448 17.0546 11.7734 16.8541 11.6395C16.6537 11.5055 16.4975 11.3152 16.4053 11.0925C16.313 10.8698 16.2889 10.6247 16.3359 10.3884C16.3829 10.1519 16.499 9.93475 16.6695 9.7643C16.8399 9.59392 17.0571 9.47784 17.2935 9.43081C17.5299 9.38378 17.7749 9.40787 17.9977 9.50017C18.2204 9.59239 18.4107 9.74862 18.5446 9.94905C18.6785 10.1494 18.75 10.3851 18.75 10.6261C18.75 10.9494 18.6216 11.2594 18.393 11.4879C18.1645 11.7164 17.8545 11.8448 17.5312 11.8448ZM21.1875 9.40734H20.0906C19.8624 8.92137 19.5005 8.51034 19.0472 8.2225C18.594 7.93459 18.0682 7.78172 17.5312 7.78172C16.9943 7.78172 16.4685 7.93459 16.0153 8.2225C15.562 8.51034 15.2001 8.92137 14.9719 9.40734H12.25V6.15734H19.5625C19.9033 6.15917 20.2398 6.23243 20.5505 6.37237C20.8612 6.51239 21.1391 6.71588 21.3662 6.96984H21.1875C20.972 6.96984 20.7654 7.05548 20.613 7.20781C20.4606 7.36022 20.375 7.56692 20.375 7.78234C20.375 7.99783 20.4606 8.20453 20.613 8.35694C20.7654 8.50927 20.972 8.59484 21.1875 8.59484H22C22 8.81033 21.9144 9.01703 21.762 9.16944C21.6096 9.32177 21.403 9.40734 21.1875 9.40734Z" fill="#050B20"/>
</svg>
