<svg width="24" height="18" viewBox="0 0 24 18" fill="none" xmlns="http://www.w3.org/2000/svg">
<path d="M22.0136 8.01126L18.7742 6.71608L16.8916 2.32291C16.5065 1.42509 15.6274 0.844971 14.6508 0.844971H7.19847C6.11622 0.844971 5.15179 1.57216 4.85441 2.61297L3.73478 6.53247H1.90991C1.01372 6.53247 0.284912 7.26131 0.284912 8.15747V13.0325C0.284912 13.9286 1.01372 14.6575 1.90991 14.6575H3.65029C4.01347 16.055 5.27529 17.095 6.78491 17.095C8.29452 17.095 9.55636 16.055 9.91952 14.6575H13.4003C13.7635 16.055 15.0253 17.095 16.5349 17.095C18.0445 17.095 19.3064 16.055 19.6695 14.6575H21.4099C22.3061 14.6575 23.0349 13.9286 23.0349 13.0325V9.52002C23.0349 8.85136 22.6344 8.25902 22.0136 8.01126ZM6.78491 15.47C5.88872 15.47 5.15991 14.7411 5.15991 13.845C5.15991 12.9488 5.88872 12.22 6.78491 12.22C7.68107 12.22 8.40991 12.9488 8.40991 13.845C8.40991 14.7411 7.68107 15.47 6.78491 15.47ZM16.5349 15.47C15.6388 15.47 14.9099 14.7411 14.9099 13.845C14.9099 12.9488 15.6388 12.22 16.5349 12.22C17.4311 12.22 18.1599 12.9488 18.1599 13.845C18.1599 14.7411 17.4311 15.47 16.5349 15.47ZM21.4099 13.0325H19.6695C19.3064 11.635 18.0445 10.595 16.5349 10.595C15.0253 10.595 13.7635 11.635 13.4003 13.0325H9.91952C9.55636 11.635 8.29452 10.595 6.78491 10.595C5.27529 10.595 4.01347 11.635 3.65029 13.0325H1.90991V8.15747H4.34741C4.70979 8.15747 5.0291 7.91697 5.12822 7.56842L6.41602 3.05984C6.51596 2.71209 6.83691 2.46997 7.19847 2.46997H14.6508C14.9758 2.46997 15.269 2.66334 15.3974 2.96234L17.4124 7.66508C17.4969 7.86337 17.657 8.01936 17.8569 8.09981L21.4099 9.52002V13.0325Z" fill="#050B20"/>
</svg>
