<svg width="14" height="14" viewBox="0 0 14 14" fill="none" xmlns="http://www.w3.org/2000/svg">
<path d="M7.17074 4.00586C9.01645 4.00586 10.5399 5.5293 10.5399 7.375C10.5399 9.25 9.01645 10.7441 7.17074 10.7441C5.29574 10.7441 3.8016 9.25 3.8016 7.375C3.8016 5.5293 5.29574 4.00586 7.17074 4.00586ZM7.17074 9.57227C8.37192 9.57227 9.33871 8.60547 9.33871 7.375C9.33871 6.17383 8.37192 5.20703 7.17074 5.20703C5.94028 5.20703 4.97348 6.17383 4.97348 7.375C4.97348 8.60547 5.96957 9.57227 7.17074 9.57227ZM11.4481 3.88867C11.4481 4.32812 11.0965 4.67969 10.6571 4.67969C10.2176 4.67969 9.86606 4.32812 9.86606 3.88867C9.86606 3.44922 10.2176 3.09766 10.6571 3.09766C11.0965 3.09766 11.4481 3.44922 11.4481 3.88867ZM13.6747 4.67969C13.7332 5.76367 13.7332 9.01562 13.6747 10.0996C13.6161 11.1543 13.3817 12.0625 12.62 12.8535C11.8582 13.6152 10.9207 13.8496 9.86606 13.9082C8.78207 13.9668 5.53012 13.9668 4.44613 13.9082C3.39145 13.8496 2.48324 13.6152 1.69223 12.8535C0.93051 12.0625 0.696135 11.1543 0.637541 10.0996C0.578947 9.01562 0.578947 5.76367 0.637541 4.67969C0.696135 3.625 0.93051 2.6875 1.69223 1.92578C2.48324 1.16406 3.39145 0.929688 4.44613 0.871094C5.53012 0.8125 8.78207 0.8125 9.86606 0.871094C10.9207 0.929688 11.8582 1.16406 12.62 1.92578C13.3817 2.6875 13.6161 3.625 13.6747 4.67969ZM12.2684 11.2422C12.62 10.3926 12.5321 8.3418 12.5321 7.375C12.5321 6.4375 12.62 4.38672 12.2684 3.50781C12.034 2.95117 11.5946 2.48242 11.0379 2.27734C10.159 1.92578 8.10824 2.01367 7.17074 2.01367C6.20395 2.01367 4.15317 1.92578 3.30356 2.27734C2.71762 2.51172 2.27817 2.95117 2.04379 3.50781C1.69223 4.38672 1.78012 6.4375 1.78012 7.375C1.78012 8.3418 1.69223 10.3926 2.04379 11.2422C2.27817 11.8281 2.71762 12.2676 3.30356 12.502C4.15317 12.8535 6.20395 12.7656 7.17074 12.7656C8.10824 12.7656 10.159 12.8535 11.0379 12.502C11.5946 12.2676 12.0633 11.8281 12.2684 11.2422Z" fill="#050B20"/>
<a href="https://www.figma.com/design/PzQUNVEIeMrv8HjdXbjYra?node-id=13-779">
<rect fill="black" fill-opacity="0" x="0.178312" y="-1.125" width="13.125" height="17.25"/>
</a>
</svg>
