<svg width="19" height="15" viewBox="0 0 19 15" fill="none" xmlns="http://www.w3.org/2000/svg">
<path d="M18.23 9.13998C18.23 11.18 17.63 13 16.43 14.6C16.31 14.76 16.15 14.85 15.95 14.87C15.75 14.89 15.57 14.84 15.41 14.72C15.25 14.6 15.16 14.45 15.14 14.27C15.12 14.09 15.17 13.92 15.29 13.76C16.33 12.4 16.85 10.86 16.85 9.13998C16.85 7.77998 16.51 6.51998 15.83 5.35998C15.15 4.19998 14.22 3.27998 13.04 2.59998C11.86 1.91998 10.59 1.57998 9.22998 1.57998C7.86998 1.57998 6.59998 1.91998 5.41998 2.59998C4.23998 3.27998 3.30998 4.19998 2.62998 5.35998C1.94998 6.51998 1.60998 7.77998 1.60998 9.13998C1.60998 10.86 2.12998 12.4 3.16998 13.76C3.28998 13.92 3.33998 14.09 3.31998 14.27C3.29998 14.45 3.20998 14.6 3.04998 14.72C2.88998 14.84 2.70998 14.89 2.50998 14.87C2.30998 14.85 2.14998 14.76 2.02998 14.6C0.82998 13 0.22998 11.18 0.22998 9.13998C0.22998 7.53998 0.62998 6.04998 1.42998 4.66998C2.22998 3.28998 3.31998 2.19998 4.69998 1.39998C6.07998 0.599982 7.58998 0.199983 9.22998 0.199983C10.87 0.199983 12.38 0.599982 13.76 1.39998C15.14 2.19998 16.23 3.28998 17.03 4.66998C17.83 6.04998 18.23 7.53998 18.23 9.13998ZM13.67 4.93998C13.83 5.05998 13.91 5.21998 13.91 5.41998C13.91 5.61998 13.83 5.77998 13.67 5.89998L11.39 8.23998C11.59 8.59998 11.69 8.97998 11.69 9.37998C11.69 10.06 11.45 10.64 10.97 11.12C10.49 11.6 9.90998 11.84 9.22998 11.84C8.54998 11.84 7.96998 11.6 7.48998 11.12C7.00998 10.64 6.76998 10.06 6.76998 9.37998C6.76998 8.69998 7.00998 8.11998 7.48998 7.63998C7.96998 7.15998 8.54998 6.91998 9.22998 6.91998C9.62998 6.91998 10.01 7.01998 10.37 7.21998L12.71 4.93998C12.83 4.77998 12.99 4.69998 13.19 4.69998C13.39 4.69998 13.55 4.77998 13.67 4.93998ZM10.31 9.37998C10.31 9.09998 10.2 8.85998 9.97998 8.65998C9.75998 8.45998 9.50998 8.35998 9.22998 8.35998C8.94998 8.35998 8.69998 8.45998 8.47998 8.65998C8.25998 8.85998 8.14998 9.09998 8.14998 9.37998C8.14998 9.65998 8.25998 9.90998 8.47998 10.13C8.69998 10.35 8.94998 10.46 9.22998 10.46C9.50998 10.46 9.75998 10.35 9.97998 10.13C10.2 9.90998 10.31 9.65998 10.31 9.37998Z" fill="#050B20"/>
</svg>
