<svg width="14" height="14" viewBox="0 0 14 14" fill="none" xmlns="http://www.w3.org/2000/svg">
<path d="M3.53793 14H0.813322V5.24023H3.53793V14ZM2.16098 4.06836C1.31137 4.06836 0.608244 3.33594 0.608244 2.45703C0.608244 1.60742 1.31137 0.904297 2.16098 0.904297C3.03988 0.904297 3.74301 1.60742 3.74301 2.45703C3.74301 3.33594 3.03988 4.06836 2.16098 4.06836ZM13.7039 14H11.0086V9.75195C11.0086 8.72656 10.9793 7.4375 9.57309 7.4375C8.16684 7.4375 7.96176 8.52148 7.96176 9.66406V14H5.23715V5.24023H7.84457V6.44141H7.87387C8.25473 5.76758 9.13363 5.03516 10.452 5.03516C13.2059 5.03516 13.7332 6.85156 13.7332 9.19531V14H13.7039Z" fill="#050B20"/>
<a href="https://www.figma.com/design/PzQUNVEIeMrv8HjdXbjYra?node-id=13-779">
<rect fill="black" fill-opacity="0" x="0.178312" y="-1.125" width="13.125" height="17.25"/>
</a>
</svg>
