<svg width="26" height="18" viewBox="0 0 26 18" fill="none" xmlns="http://www.w3.org/2000/svg">
<path d="M25.1522 12.3612H24.3043V8.12217C24.3043 6.71962 23.1633 5.57868 21.7609 5.57868H18.9807L17.8648 2.2308C17.5179 1.1906 16.5482 0.491699 15.4517 0.491699C15.3197 0.491699 6.15383 0.491699 5.93475 0.491699C4.82945 0.491699 3.8871 1.20055 3.53712 2.18733H2.54348C1.141 2.18733 0 3.32834 0 4.73078V8.12217C0 9.52464 1.141 10.6656 2.54348 10.6656H3.39133V12.3612H2.54348C2.07527 12.3612 1.69564 12.7408 1.69564 13.2091C1.69564 13.6774 2.07523 14.057 2.54348 14.057C3.3375 14.057 4.29031 14.057 5.08696 14.057C5.08696 15.9269 6.60831 17.4483 8.47829 17.4483C10.3482 17.4483 11.8696 15.9269 11.8696 14.057H15.8261C15.8261 15.9269 17.3475 17.4483 19.2174 17.4483C21.0875 17.4483 22.6088 15.9269 22.6088 14.057C23.4057 14.057 24.3588 14.057 25.1522 14.057C25.6205 14.057 26.0001 13.6774 26.0001 13.2091C26.0001 12.7408 25.6204 12.3612 25.1522 12.3612ZM3.39133 8.96993H2.54348C2.07599 8.96993 1.69564 8.58956 1.69564 8.1221V4.73078C1.69564 4.26324 2.07599 3.88295 2.54348 3.88295H3.39133C3.39133 4.42314 3.39133 8.4461 3.39133 8.96993ZM11.8695 2.18733H13.2826H15.4517C15.8173 2.18733 16.1405 2.42032 16.256 2.767L17.1932 5.57861H11.8695V2.18733ZM5.08696 3.03513C5.08696 2.56763 5.46731 2.18728 5.93481 2.18728H10.174V5.57861H5.08696V3.03513ZM8.47829 15.7526C7.5433 15.7526 6.78265 14.9919 6.78265 14.0569C6.78265 13.1219 7.5433 12.3612 8.47829 12.3612C9.4133 12.3612 10.174 13.1219 10.174 14.0569C10.174 14.9919 9.4133 15.7526 8.47829 15.7526ZM19.2174 15.7526C18.2824 15.7526 17.5218 14.9919 17.5218 14.0569C17.5218 13.1219 18.2824 12.3612 19.2174 12.3612C20.1524 12.3612 20.913 13.1219 20.913 14.0569C20.913 14.9919 20.1524 15.7526 19.2174 15.7526ZM22.6087 12.3612H22.1525C21.5651 11.3486 20.4699 10.6656 19.2174 10.6656C17.9649 10.6656 16.8697 11.3486 16.2823 12.3612H11.4133C10.826 11.3486 9.73073 10.6656 8.47829 10.6656C7.22581 10.6656 6.13056 11.3486 5.54323 12.3612H5.08701V9.81775V7.27427C6.46958 7.27427 20.8531 7.27427 21.7609 7.27427C22.2284 7.27427 22.6088 7.65463 22.6088 8.12217L22.6087 12.3612Z" fill="#050B20"/>
<path d="M14.4134 8.96997H12.7177C12.2495 8.96997 11.8699 9.34957 11.8699 9.8178C11.8699 10.286 12.2495 10.6656 12.7177 10.6656H14.4134C14.8815 10.6656 15.2612 10.2861 15.2612 9.8178C15.2612 9.34957 14.8816 8.96997 14.4134 8.96997Z" fill="#050B20"/>
</svg>
