<svg width="26" height="14" viewBox="0 0 26 14" fill="none" xmlns="http://www.w3.org/2000/svg">
<path d="M21.8286 3.96814H19.8149C19.142 2.98014 18.2467 2.15423 17.2037 1.5652C16.0357 0.905592 14.7094 0.557007 13.3682 0.557007H12.8C12.3877 0.557007 12.0536 0.891143 12.0536 1.30332V3.96814H3.77135C1.95287 3.96814 0.445979 5.32378 0.205687 7.07729C0.202989 7.09423 0.200677 7.11117 0.199135 7.12855C0.1816 7.27289 0.171387 7.41931 0.171387 7.56825V10.4219C0.171387 10.8341 0.505523 11.1682 0.917698 11.1682H3.52894C3.86095 12.4508 5.02811 13.4006 6.41303 13.4006C7.79793 13.4006 8.96511 12.4508 9.29709 11.1682H16.3028C16.635 12.4508 17.802 13.4006 19.1869 13.4006C20.5718 13.4006 21.7388 12.4508 22.071 11.1682H24.6822C25.0944 11.1682 25.4285 10.8341 25.4285 10.4219V7.56825C25.4285 5.58311 23.8136 3.96814 21.8286 3.96814ZM13.5463 2.05231C15.1957 2.09956 16.7603 2.80304 17.8951 3.96814H13.5463V2.05231ZM1.66402 7.93864H2.81673C3.2289 7.93864 3.56304 7.6045 3.56304 7.19229C3.56304 6.78015 3.2289 6.44601 2.81673 6.44601H1.98909C2.36273 5.85463 3.02176 5.46091 3.77135 5.46091H12.0536V9.67559H9.29709C8.96488 8.39304 7.79793 7.443 6.41303 7.443C5.02811 7.443 3.86114 8.39304 3.52894 9.67559H1.66402V7.93864ZM7.89911 10.4219C7.89911 11.2415 7.23254 11.908 6.41303 11.908C5.59349 11.908 4.92695 11.2415 4.92695 10.4219C4.92695 9.60241 5.59349 8.93585 6.41303 8.93585C7.23254 8.93585 7.89911 9.60241 7.89911 10.4219ZM20.673 10.4219C20.673 11.2415 20.0064 11.908 19.1869 11.908C18.3674 11.908 17.7008 11.2415 17.7008 10.4219C17.7008 9.60241 18.3674 8.93585 19.1869 8.93585C20.0064 8.93585 20.673 9.60241 20.673 10.4219ZM22.071 9.67559C21.739 8.39304 20.5718 7.443 19.1869 7.443C17.802 7.443 16.6348 8.39304 16.3028 9.67559H13.5463V5.46091H21.8286C22.5649 5.46091 23.2141 5.84096 23.591 6.41481H22.4359C22.0238 6.41481 21.6897 6.74895 21.6897 7.16109C21.6897 7.5733 22.0238 7.90759 22.4359 7.90759H23.9359V9.67559H22.071Z" fill="#050B20"/>
</svg>
