<svg width="15" height="15" viewBox="0 0 15 15" fill="none" xmlns="http://www.w3.org/2000/svg">
<path d="M14.1109 0.880127H5.55533C5.34037 0.880127 5.16643 1.05407 5.16643 1.26903C5.16643 1.48399 5.34037 1.65793 5.55533 1.65793H13.1721L0.613697 14.2163C0.461775 14.3682 0.461775 14.6143 0.613697 14.7662C0.68964 14.8421 0.789171 14.8801 0.888666 14.8801C0.988161 14.8801 1.08766 14.8421 1.16364 14.7662L13.722 2.20783V9.8246C13.722 10.0396 13.8959 10.2135 14.1109 10.2135C14.3259 10.2135 14.4998 10.0396 14.4998 9.8246V1.26903C14.4998 1.05407 14.3258 0.880127 14.1109 0.880127Z" fill="#405FF2"/>
</svg>
