<svg width="18" height="19" viewBox="0 0 18 19" fill="none" xmlns="http://www.w3.org/2000/svg">
<path d="M10.9 3.88002C10.9 3.72002 10.85 3.59002 10.75 3.49002C10.65 3.39002 10.52 3.34002 10.36 3.34002H4.72001C4.56001 3.34002 4.43001 3.39002 4.33001 3.49002C4.23001 3.59002 4.18001 3.72002 4.18001 3.88002V8.38002C4.18001 8.54002 4.23001 8.68002 4.33001 8.80002C4.43001 8.92002 4.56001 8.98002 4.72001 8.98002H10.36C10.52 8.98002 10.65 8.92002 10.75 8.80002C10.85 8.68002 10.9 8.54002 10.9 8.38002V3.88002ZM9.76001 7.84002H5.26001V4.48002H9.76001V7.84002ZM17.38 4.48002L15.1 3.40002C14.98 3.32002 14.84 3.30002 14.68 3.34002C14.52 3.38002 14.41 3.47002 14.35 3.61002C14.29 3.75002 14.28 3.90002 14.32 4.06002C14.36 4.22002 14.46 4.32002 14.62 4.36002L15.46 4.84002L15.4 5.02002C15.4 5.38002 15.51 5.70002 15.73 5.98002C15.95 6.26002 16.22 6.46002 16.54 6.58002V13.42C16.54 13.58 16.48 13.72 16.36 13.84C16.24 13.96 16.11 14.02 15.97 14.02C15.83 14.02 15.7 13.96 15.58 13.84C15.46 13.72 15.4 13.58 15.4 13.42V8.92002C15.4 8.28002 15.17 7.70002 14.71 7.18002C14.25 6.66002 13.74 6.34002 13.18 6.22002V2.74002C13.18 2.14002 12.96 1.62002 12.52 1.18002C12.08 0.740021 11.56 0.52002 10.96 0.52002H4.18001C3.58001 0.52002 3.05001 0.740021 2.59001 1.18002C2.13001 1.62002 1.90001 2.14002 1.90001 2.74002V15.34L1.12001 15.76C0.88001 15.88 0.76001 16.04 0.76001 16.24V17.92C0.76001 18.08 0.82001 18.22 0.94001 18.34C1.06001 18.46 1.20001 18.52 1.36001 18.52H13.72C13.88 18.52 14.01 18.46 14.11 18.34C14.21 18.22 14.26 18.08 14.26 17.92V16.24C14.26 16.04 14.16 15.88 13.96 15.76L13.18 15.34V7.36002C13.46 7.48002 13.71 7.69002 13.93 7.99002C14.15 8.29002 14.26 8.60002 14.26 8.92002V13.42C14.26 13.9 14.43 14.31 14.77 14.65C15.11 14.99 15.51 15.16 15.97 15.16C16.43 15.16 16.83 14.99 17.17 14.65C17.51 14.31 17.68 13.9 17.68 13.42V5.02002C17.68 4.78002 17.58 4.60002 17.38 4.48002ZM13.18 17.38H1.90001V16.6L2.74001 16.18C2.94001 16.1 3.04001 15.94 3.04001 15.7V2.74002C3.04001 2.46002 3.15001 2.21002 3.37001 1.99002C3.59001 1.77002 3.86001 1.66002 4.18001 1.66002H10.96C11.24 1.66002 11.49 1.77002 11.71 1.99002C11.93 2.21002 12.04 2.46002 12.04 2.74002V15.7C12.04 15.94 12.14 16.1 12.34 16.18L13.18 16.6V17.38Z" fill="#050B20"/>
</svg>
