<svg width="26" height="12" viewBox="0 0 26 12" fill="none" xmlns="http://www.w3.org/2000/svg">
<path d="M23.2409 4.92054L18.8809 4.1935C18.626 3.77944 18.1192 3.03041 17.3824 2.27998C15.9116 0.782156 14.2184 -0.00952148 12.4855 -0.00952148H5.38521C4.23188 -0.00952148 3.16254 0.614063 2.5945 1.61787L0.63791 5.07572C0.634753 5.08129 0.632386 5.08709 0.629376 5.09273C0.478031 5.36358 0.391357 5.67528 0.391357 6.00704V9.65068C0.391357 10.0593 0.72266 10.3906 1.13131 10.3906H3.50119C3.84902 11.3007 4.73559 11.9495 5.77216 11.9495C6.80874 11.9495 7.69528 11.3007 8.04316 10.3906H17.2334C17.5812 11.3007 18.4677 11.9495 19.5043 11.9495C20.5409 11.9495 21.4274 11.3007 21.7752 10.3906H24.9085C25.3172 10.3906 25.6485 10.0593 25.6485 9.65068V7.69177C25.6485 6.30367 24.6142 5.11435 23.2409 4.92054ZM17.0296 4.12635H11.6991V1.47041H12.4855C14.5829 1.47041 16.1669 3.02098 17.0296 4.12635ZM6.7604 1.47041H10.2193V4.12635H6.7604V1.47041ZM3.88252 2.34669C4.1711 1.83672 4.70002 1.50934 5.28049 1.47398V4.12635H2.87549L3.88252 2.34669ZM5.77216 10.4696C5.24912 10.4696 4.82359 10.0512 4.82359 9.53688C4.82359 9.0226 5.24912 8.60415 5.77216 8.60415C6.29521 8.60415 6.72074 9.0226 6.72074 9.53688C6.72074 10.0512 6.29521 10.4696 5.77216 10.4696ZM19.5043 10.4696C18.9812 10.4696 18.5557 10.0512 18.5557 9.53688C18.5557 9.0226 18.9813 8.60415 19.5043 8.60415C20.0274 8.60415 20.4529 9.0226 20.4529 9.53688C20.4529 10.0512 20.0274 10.4696 19.5043 10.4696ZM21.8493 8.91065C21.571 7.88305 20.6254 7.12423 19.5043 7.12423C18.3832 7.12423 17.4376 7.88305 17.1592 8.91065H8.11715C7.83887 7.88305 6.89324 7.12423 5.77216 7.12423C4.65109 7.12423 3.70547 7.88305 3.42709 8.91065H1.87127V6.00704C1.87127 5.78604 2.05103 5.60627 2.27203 5.60627H18.3559L23.0073 6.38196C23.0144 6.38315 23.0215 6.38426 23.0287 6.38523C23.1546 6.40247 23.2743 6.4376 23.3858 6.48752C23.0763 6.57607 22.8494 6.86051 22.8494 7.19851C22.8494 7.60716 23.1807 7.93847 23.5894 7.93847H24.1686V8.91072L21.8493 8.91065Z" fill="#050B20"/>
</svg>
