<svg width="17" height="15" viewBox="0 0 17 15" fill="none" xmlns="http://www.w3.org/2000/svg">
<path d="M2.71993 0.200089C2.15993 0.200089 1.67993 0.400088 1.27993 0.800088C0.879932 1.20009 0.679932 1.69009 0.679932 2.27009C0.679932 2.85009 0.879932 3.34009 1.27993 3.74009C1.67993 4.14009 2.15993 4.34009 2.71993 4.34009C3.27993 4.34009 3.75993 4.14009 4.15993 3.74009C4.55993 3.34009 4.75993 2.85009 4.75993 2.27009C4.75993 1.69009 4.55993 1.20009 4.15993 0.800088C3.75993 0.400088 3.27993 0.200089 2.71993 0.200089ZM2.71993 1.34009C2.95993 1.34009 3.17993 1.43009 3.37993 1.61009C3.57993 1.79009 3.67993 2.01009 3.67993 2.27009C3.67993 2.53009 3.57993 2.75009 3.37993 2.93009C3.17993 3.11009 2.95993 3.20009 2.71993 3.20009C2.47993 3.20009 2.25993 3.11009 2.05993 2.93009C1.85993 2.75009 1.75993 2.53009 1.75993 2.27009C1.75993 2.01009 1.85993 1.79009 2.05993 1.61009C2.25993 1.43009 2.47993 1.34009 2.71993 1.34009ZM2.71993 10.7001C2.15993 10.7001 1.67993 10.9001 1.27993 11.3001C0.879932 11.7001 0.679932 12.1901 0.679932 12.7701C0.679932 13.3501 0.879932 13.8401 1.27993 14.2401C1.67993 14.6401 2.15993 14.8401 2.71993 14.8401C3.27993 14.8401 3.75993 14.6401 4.15993 14.2401C4.55993 13.8401 4.75993 13.3501 4.75993 12.7701C4.75993 12.1901 4.55993 11.7001 4.15993 11.3001C3.75993 10.9001 3.27993 10.7001 2.71993 10.7001ZM2.71993 11.8401C2.95993 11.8401 3.17993 11.9301 3.37993 12.1101C3.57993 12.2901 3.67993 12.5101 3.67993 12.7701C3.67993 13.0301 3.57993 13.2501 3.37993 13.4301C3.17993 13.6101 2.95993 13.7001 2.71993 13.7001C2.47993 13.7001 2.25993 13.6101 2.05993 13.4301C1.85993 13.2501 1.75993 13.0301 1.75993 12.7701C1.75993 12.5101 1.85993 12.2901 2.05993 12.1101C2.25993 11.9301 2.47993 11.8401 2.71993 11.8401ZM8.71993 0.200089C8.15993 0.200089 7.67993 0.400088 7.27993 0.800088C6.87993 1.20009 6.67993 1.69009 6.67993 2.27009C6.67993 2.85009 6.87993 3.34009 7.27993 3.74009C7.67993 4.14009 8.15993 4.34009 8.71993 4.34009C9.27993 4.34009 9.75993 4.14009 10.1599 3.74009C10.5599 3.34009 10.7599 2.85009 10.7599 2.27009C10.7599 1.69009 10.5599 1.20009 10.1599 0.800088C9.75993 0.400088 9.27993 0.200089 8.71993 0.200089ZM8.71993 1.34009C8.95993 1.34009 9.17993 1.43009 9.37993 1.61009C9.57993 1.79009 9.67993 2.01009 9.67993 2.27009C9.67993 2.53009 9.57993 2.75009 9.37993 2.93009C9.17993 3.11009 8.95993 3.20009 8.71993 3.20009C8.47993 3.20009 8.25993 3.11009 8.05993 2.93009C7.85993 2.75009 7.75993 2.53009 7.75993 2.27009C7.75993 2.01009 7.85993 1.79009 8.05993 1.61009C8.25993 1.43009 8.47993 1.34009 8.71993 1.34009ZM8.71993 10.7001C8.15993 10.7001 7.67993 10.9001 7.27993 11.3001C6.87993 11.7001 6.67993 12.1901 6.67993 12.7701C6.67993 13.3501 6.87993 13.8401 7.27993 14.2401C7.67993 14.6401 8.15993 14.8401 8.71993 14.8401C9.27993 14.8401 9.75993 14.6401 10.1599 14.2401C10.5599 13.8401 10.7599 13.3501 10.7599 12.7701C10.7599 12.1901 10.5599 11.7001 10.1599 11.3001C9.75993 10.9001 9.27993 10.7001 8.71993 10.7001ZM8.71993 11.8401C8.95993 11.8401 9.17993 11.9301 9.37993 12.1101C9.57993 12.2901 9.67993 12.5101 9.67993 12.7701C9.67993 13.0301 9.57993 13.2501 9.37993 13.4301C9.17993 13.6101 8.95993 13.7001 8.71993 13.7001C8.47993 13.7001 8.25993 13.6101 8.05993 13.4301C7.85993 13.2501 7.75993 13.0301 7.75993 12.7701C7.75993 12.5101 7.85993 12.2901 8.05993 12.1101C8.25993 11.9301 8.47993 11.8401 8.71993 11.8401ZM14.7199 0.200089C14.1599 0.200089 13.6799 0.400088 13.2799 0.800088C12.8799 1.20009 12.6799 1.69009 12.6799 2.27009C12.6799 2.85009 12.8799 3.34009 13.2799 3.74009C13.6799 4.14009 14.1599 4.34009 14.7199 4.34009C15.2799 4.34009 15.7599 4.14009 16.1599 3.74009C16.5599 3.34009 16.7599 2.85009 16.7599 2.27009C16.7599 1.69009 16.5599 1.20009 16.1599 0.800088C15.7599 0.400088 15.2799 0.200089 14.7199 0.200089ZM14.7199 1.34009C14.9599 1.34009 15.1799 1.43009 15.3799 1.61009C15.5799 1.79009 15.6799 2.01009 15.6799 2.27009C15.6799 2.53009 15.5799 2.75009 15.3799 2.93009C15.1799 3.11009 14.9599 3.20009 14.7199 3.20009C14.4799 3.20009 14.2599 3.11009 14.0599 2.93009C13.8599 2.75009 13.7599 2.53009 13.7599 2.27009C13.7599 2.01009 13.8599 1.79009 14.0599 1.61009C14.2599 1.43009 14.4799 1.34009 14.7199 1.34009ZM14.7199 10.7001C14.1599 10.7001 13.6799 10.9001 13.2799 11.3001C12.8799 11.7001 12.6799 12.1901 12.6799 12.7701C12.6799 13.3501 12.8799 13.8401 13.2799 14.2401C13.6799 14.6401 14.1599 14.8401 14.7199 14.8401C15.2799 14.8401 15.7599 14.6401 16.1599 14.2401C16.5599 13.8401 16.7599 13.3501 16.7599 12.7701C16.7599 12.1901 16.5599 11.7001 16.1599 11.3001C15.7599 10.9001 15.2799 10.7001 14.7199 10.7001ZM14.7199 11.8401C14.9599 11.8401 15.1799 11.9301 15.3799 12.1101C15.5799 12.2901 15.6799 12.5101 15.6799 12.7701C15.6799 13.0301 15.5799 13.2501 15.3799 13.4301C15.1799 13.6101 14.9599 13.7001 14.7199 13.7001C14.4799 13.7001 14.2599 13.6101 14.0599 13.4301C13.8599 13.2501 13.7599 13.0301 13.7599 12.7701C13.7599 12.5101 13.8599 12.2901 14.0599 12.1101C14.2599 11.9301 14.4799 11.8401 14.7199 11.8401ZM2.17993 3.74009V11.2401C2.17993 11.4001 2.22993 11.5401 2.32993 11.6601C2.42993 11.7801 2.55993 11.8401 2.71993 11.8401C2.87993 11.8401 3.00993 11.7801 3.10993 11.6601C3.20993 11.5401 3.25993 11.4201 3.25993 11.3001V3.74009C3.25993 3.62009 3.20993 3.50009 3.10993 3.38009C3.00993 3.26009 2.87993 3.20009 2.71993 3.20009C2.55993 3.20009 2.42993 3.26009 2.32993 3.38009C2.22993 3.50009 2.17993 3.62009 2.17993 3.74009ZM8.17993 3.74009V11.2401C8.17993 11.4001 8.22993 11.5401 8.32993 11.6601C8.42993 11.7801 8.55993 11.8401 8.71993 11.8401C8.87993 11.8401 9.00993 11.7801 9.10993 11.6601C9.20993 11.5401 9.25993 11.4201 9.25993 11.3001V3.74009C9.25993 3.62009 9.20993 3.50009 9.10993 3.38009C9.00993 3.26009 8.87993 3.20009 8.71993 3.20009C8.55993 3.20009 8.42993 3.26009 8.32993 3.38009C8.22993 3.50009 8.17993 3.62009 8.17993 3.74009ZM14.1799 3.74009V6.74009C14.1799 6.82009 14.1599 6.88009 14.1199 6.92009C14.0799 6.96009 14.0399 6.98009 13.9999 6.98009H2.71993C2.55993 6.98009 2.42993 7.03009 2.32993 7.13009C2.22993 7.23009 2.17993 7.36009 2.17993 7.52009C2.17993 7.68009 2.22993 7.81009 2.32993 7.91009C2.42993 8.01009 2.55993 8.06009 2.71993 8.06009H13.9999C14.3599 8.06009 14.6599 7.94009 14.8999 7.70009C15.1399 7.46009 15.2599 7.14009 15.2599 6.74009V3.80009C15.2599 3.64009 15.2099 3.50009 15.1099 3.38009C15.0099 3.26009 14.8799 3.20009 14.7199 3.20009C14.5599 3.20009 14.4299 3.26009 14.3299 3.38009C14.2299 3.50009 14.1799 3.62009 14.1799 3.74009Z" fill="#050B20"/>
</svg>
